<svg width="15" height="20" viewBox="0 0 15 20" fill="none" xmlns="http://www.w3.org/2000/svg">
<path d="M14.1667 7C14.1667 10.866 11.0327 14 7.16675 14C3.30075 14 0.166748 10.866 0.166748 7C0.166748 3.13401 3.30075 0 7.16675 0C11.0327 0 14.1667 3.13401 14.1667 7Z" fill="white"/>
<path d="M2.25976 13.9414L1.88099 15.323C1.25265 17.6148 0.938475 18.7607 1.35772 19.3881C1.50465 19.6079 1.70175 19.7844 1.93047 19.9008C2.58309 20.2331 3.59075 19.7081 5.60606 18.658C6.27661 18.3086 6.61191 18.1339 6.96817 18.0959C7.10023 18.0818 7.23327 18.0818 7.36532 18.0959C7.72158 18.1339 8.05686 18.3086 8.72742 18.658C10.7427 19.7081 11.7504 20.2331 12.403 19.9008C12.6317 19.7844 12.8288 19.6079 12.9758 19.3881C13.395 18.7607 13.0808 17.6148 12.4525 15.323L12.0737 13.9414C10.6876 14.9231 8.99454 15.5 7.16675 15.5C5.33895 15.5 3.6459 14.9231 2.25976 13.9414Z" fill="white"/>
</svg>
