<svg width="17" height="18" viewBox="0 0 17 18" fill="none" xmlns="http://www.w3.org/2000/svg">
<path d="M11.38 0.5H7.91852C6.35031 0.499988 5.10816 0.499977 4.13603 0.62546C3.13557 0.754601 2.3258 1.0267 1.68719 1.63981C1.04859 2.25293 0.765185 3.03038 0.630676 3.99092C0.499977 4.92425 0.499987 6.11681 0.5 7.62244V12.5843C0.5 13.8662 1.31774 14.9648 2.47971 15.4253C2.4199 14.6523 2.41995 13.5676 2.42 12.6652L2.42 8.48795L2.42 8.40705C2.41993 7.31763 2.41988 6.37897 2.52514 5.62729C2.63795 4.82172 2.89234 4.04953 3.54471 3.4232C4.19708 2.79687 5.00137 2.55262 5.84043 2.44432C6.62335 2.34326 7.60103 2.34331 8.73574 2.34337L8.82 2.34337H11.38L11.4643 2.34337C12.599 2.34331 13.5745 2.34326 14.3574 2.44432C13.8891 1.30562 12.7325 0.5 11.38 0.5Z" fill="white"/>
<path d="M3.7 8.48795C3.7 6.17069 3.7 5.01205 4.44981 4.29217C5.19961 3.57229 6.40641 3.57229 8.82 3.57229H11.38C13.7936 3.57229 15.0004 3.57229 15.7502 4.29217C16.5 5.01205 16.5 6.17069 16.5 8.48795V12.5843C16.5 14.9016 16.5 16.0602 15.7502 16.7801C15.0004 17.5 13.7936 17.5 11.38 17.5H8.82C6.40641 17.5 5.19961 17.5 4.44981 16.7801C3.7 16.0602 3.7 14.9016 3.7 12.5843V8.48795Z" fill="white"/>
</svg>
