<svg width="17" height="17" viewBox="0 0 17 17" fill="none" xmlns="http://www.w3.org/2000/svg">
<path fill-rule="evenodd" clip-rule="evenodd" d="M12.0303 7.34467C11.7374 7.05178 11.2626 7.05178 10.9697 7.34467L9.25 9.06434V0.875C9.25 0.460787 8.91422 0.125 8.5 0.125C8.08579 0.125 7.75 0.460787 7.75 0.875L7.75 9.06434L6.03033 7.34467C5.73744 7.05178 5.26256 7.05178 4.96967 7.34467C4.67678 7.63756 4.67678 8.11244 4.96967 8.40533L7.96967 11.4053C8.26256 11.6982 8.73744 11.6982 9.03033 11.4053L12.0303 8.40533C12.3232 8.11244 12.3232 7.63756 12.0303 7.34467Z" fill="white"/>
<path d="M14.2476 8.875C13.7996 8.875 13.4077 9.14923 13.091 9.46599L10.091 12.466C9.21231 13.3447 7.78769 13.3447 6.90901 12.466L3.90901 9.46599C3.59226 9.14923 3.20041 8.875 2.75245 8.875H0.5C0.5 13.2933 4.08172 16.875 8.5 16.875C12.9183 16.875 16.5 13.2933 16.5 8.875H14.2476Z" fill="white"/>
</svg>
