<svg width="18" height="14" viewBox="0 0 18 14" fill="none" xmlns="http://www.w3.org/2000/svg">
<path fill-rule="evenodd" clip-rule="evenodd" d="M1.05442 1.02513C0 2.05025 0 3.70017 0 7C0 10.2998 0 11.9497 1.05442 12.9749C2.10883 14 3.80589 14 7.2 14H10.8C14.1941 14 15.8912 14 16.9456 12.9749C18 11.9497 18 10.2998 18 7C18 3.70017 18 2.05025 16.9456 1.02513C15.8912 0 14.1941 0 10.8 0H7.2C3.80589 0 2.10883 0 1.05442 1.02513ZM14.9185 3.07988C15.1572 3.35831 15.1185 3.77212 14.8321 4.00415L12.8553 5.60575C12.0576 6.25207 11.411 6.77593 10.8403 7.13276C10.2459 7.50446 9.66697 7.73927 9 7.73927C8.33303 7.73927 7.75411 7.50446 7.15966 7.13276C6.589 6.77593 5.94244 6.25208 5.14472 5.60576L3.16788 4.00415C2.88149 3.77212 2.84279 3.35831 3.08145 3.07988C3.32011 2.80145 3.74574 2.76383 4.03212 2.99585L5.97513 4.57005C6.81479 5.25033 7.39776 5.72111 7.88992 6.02886C8.36635 6.32677 8.68944 6.42677 9 6.42677C9.31056 6.42677 9.63365 6.32677 10.1101 6.02886C10.6022 5.72111 11.1852 5.25033 12.0249 4.57005L13.9679 2.99585C14.2543 2.76383 14.6799 2.80145 14.9185 3.07988Z" fill="white"/>
</svg>
