<svg width="19" height="18" viewBox="0 0 19 18" fill="none" xmlns="http://www.w3.org/2000/svg">
<path d="M0.5 4.05C0.5 2.14081 0.5 1.18622 1.09311 0.593109C1.68622 0 2.64081 0 4.55 0C6.45919 0 7.41378 0 8.00689 0.593109C8.6 1.18622 8.6 2.14081 8.6 4.05C8.6 5.95919 8.6 6.91378 8.00689 7.50689C7.41378 8.1 6.45919 8.1 4.55 8.1C2.64081 8.1 1.68622 8.1 1.09311 7.50689C0.5 6.91378 0.5 5.95919 0.5 4.05Z" fill="white"/>
<path d="M10.4 13.95C10.4 12.0408 10.4 11.0862 10.9931 10.4931C11.5862 9.9 12.5408 9.9 14.45 9.9C16.3592 9.9 17.3138 9.9 17.9069 10.4931C18.5 11.0862 18.5 12.0408 18.5 13.95C18.5 15.8592 18.5 16.8138 17.9069 17.4069C17.3138 18 16.3592 18 14.45 18C12.5408 18 11.5862 18 10.9931 17.4069C10.4 16.8138 10.4 15.8592 10.4 13.95Z" fill="white"/>
<path d="M0.5 13.95C0.5 12.0408 0.5 11.0862 1.09311 10.4931C1.68622 9.9 2.64081 9.9 4.55 9.9C6.45919 9.9 7.41378 9.9 8.00689 10.4931C8.6 11.0862 8.6 12.0408 8.6 13.95C8.6 15.8592 8.6 16.8138 8.00689 17.4069C7.41378 18 6.45919 18 4.55 18C2.64081 18 1.68622 18 1.09311 17.4069C0.5 16.8138 0.5 15.8592 0.5 13.95Z" fill="white"/>
<path d="M10.4 4.05C10.4 2.14081 10.4 1.18622 10.9931 0.593109C11.5862 0 12.5408 0 14.45 0C16.3592 0 17.3138 0 17.9069 0.593109C18.5 1.18622 18.5 2.14081 18.5 4.05C18.5 5.95919 18.5 6.91378 17.9069 7.50689C17.3138 8.1 16.3592 8.1 14.45 8.1C12.5408 8.1 11.5862 8.1 10.9931 7.50689C10.4 6.91378 10.4 5.95919 10.4 4.05Z" fill="white"/>
</svg>
