<svg width="19" height="19" viewBox="0 0 19 19" fill="none" xmlns="http://www.w3.org/2000/svg">
<path d="M1.23429 1.57278C1.05963 1.91578 0.973728 2.3389 0.801923 3.18515L0.225064 6.02651C-0.140191 7.82561 1.25667 9.50414 3.11911 9.50414C4.63537 9.50414 5.90495 8.37229 6.05582 6.88601L6.1224 6.23011C5.96506 7.9871 7.37084 9.50414 9.16654 9.50414C10.9745 9.50414 12.3871 7.96638 12.2073 6.1942L12.2777 6.88601C12.4285 8.37229 13.6981 9.50414 15.2144 9.50414C17.0768 9.50414 18.4737 7.82561 18.1084 6.02651L17.5316 3.18515C17.3598 2.33892 17.2739 1.91578 17.0992 1.57278C16.7312 0.850044 16.0689 0.315229 15.2774 0.101454C14.9017 0 14.4637 0 13.5876 0H4.74587C3.86983 0 3.43181 0 3.05614 0.101454C2.26455 0.315229 1.60233 0.850044 1.23429 1.57278Z" fill="white"/>
<path d="M15.2144 10.9297C16.0028 10.9297 16.7352 10.7279 17.3673 10.3775V11.4049C17.3673 14.9892 17.3673 16.7813 16.237 17.8948C15.3271 18.7911 13.9709 18.9659 11.5787 19V15.6818C11.5787 14.7936 11.5787 14.3494 11.3848 14.0186C11.2578 13.8019 11.0751 13.6219 10.8551 13.4968C10.5193 13.3058 10.0684 13.3058 9.16674 13.3058C8.26505 13.3058 7.8142 13.3058 7.47839 13.4968C7.25839 13.6219 7.0757 13.8019 6.94869 14.0186C6.75481 14.3494 6.75481 14.7936 6.75481 15.6818V19C4.36259 18.9659 3.00634 18.7911 2.09647 17.8948C0.966171 16.7813 0.966171 14.9892 0.966171 11.4049V10.3775C1.59833 10.7279 2.33074 10.9297 3.11913 10.9297C4.27403 10.9297 5.33289 10.4891 6.12225 9.76259C6.92044 10.485 7.98633 10.9297 9.16656 10.9297C10.3469 10.9297 11.4128 10.4849 12.2111 9.7624C13.0005 10.489 14.0594 10.9297 15.2144 10.9297Z" fill="white"/>
</svg>
