<svg width="30" height="30" viewBox="0 0 30 30" fill="none" xmlns="http://www.w3.org/2000/svg">
<rect x="1.5" y="1.5" width="27" height="27" rx="13.5" fill="url(#paint0_linear_129_93)"/>
<rect x="1.5" y="1.5" width="27" height="27" rx="13.5" stroke="#131313" stroke-width="3"/>
<rect x="1.5" y="1.5" width="27" height="27" rx="13.5" stroke="url(#paint1_linear_129_93)" stroke-width="3"/>
<path fill-rule="evenodd" clip-rule="evenodd" d="M10.6509 9.70294C10 10.4059 10 11.5373 10 13.8V16.2C10 18.4627 10 19.5941 10.6509 20.2971C11.3017 21 12.3493 21 14.4444 21H15.5556C17.6507 21 18.6983 21 19.3491 20.2971C20 19.5941 20 18.4627 20 16.2V13.8C20 11.5373 20 10.4059 19.3491 9.70294C18.6983 9 17.6507 9 15.5556 9H15V10.2H15.8333C16.0952 10.2 16.2262 10.2 16.3075 10.2879C16.3889 10.3757 16.3889 10.5172 16.3889 10.8C16.3889 11.0828 16.3889 11.2243 16.3075 11.3121C16.2262 11.4 16.0952 11.4 15.8333 11.4H15V12.6H15.8333C16.0952 12.6 16.2262 12.6 16.3075 12.6879C16.3889 12.7757 16.3889 12.9172 16.3889 13.2C16.3889 13.4828 16.3889 13.6243 16.3075 13.7121C16.2262 13.8 16.0952 13.8 15.8333 13.8H15.5556C15.2937 13.8 15.1627 13.8 15.0814 13.7121C15 13.6243 15 13.4828 15 13.2V12.6H14.1667C13.9048 12.6 13.7738 12.6 13.6925 12.5121C13.6111 12.4243 13.6111 12.2828 13.6111 12C13.6111 11.7172 13.6111 11.5757 13.6925 11.4879C13.7738 11.4 13.9048 11.4 14.1667 11.4H15V10.2H14.1667C13.9048 10.2 13.7738 10.2 13.6925 10.1121C13.6111 10.0243 13.6111 9.88284 13.6111 9.6V9.00203C12.059 9.01426 11.209 9.10012 10.6509 9.70294ZM13.6111 15.525V15.6C13.6111 16.4284 14.2329 17.1 15 17.1C15.7671 17.1 16.3889 16.4284 16.3889 15.6V15.525C16.3889 15.2351 16.1712 15 15.9028 15H14.0972C13.8288 15 13.6111 15.2351 13.6111 15.525Z" fill="white"/>
<defs>
<linearGradient id="paint0_linear_129_93" x1="22.2" y1="3" x2="7.8" y2="27" gradientUnits="userSpaceOnUse">
<stop stop-color="#FFC60B"/>
<stop offset="1" stop-color="#DD9B2F"/>
</linearGradient>
<linearGradient id="paint1_linear_129_93" x1="15" y1="3" x2="15" y2="27" gradientUnits="userSpaceOnUse">
<stop stop-color="white" stop-opacity="0.1"/>
<stop offset="1" stop-color="#252525" stop-opacity="0.1"/>
</linearGradient>
</defs>
</svg>
