<svg width="21" height="18" viewBox="0 0 21 18" fill="none" xmlns="http://www.w3.org/2000/svg">
<path d="M10.2749 2.18355L15.2527 6.60829C16.1833 7.43547 16.6486 7.84906 16.8201 8.33744C16.9707 8.76632 16.9707 9.23369 16.8201 9.66257C16.6486 10.1509 16.1833 10.5645 15.2527 11.3917L10.2749 15.8165C9.8526 16.1918 9.64145 16.3795 9.4621 16.3862C9.3063 16.3921 9.15669 16.3249 9.05754 16.2046C8.9434 16.0661 8.9434 15.7835 8.9434 15.2185V12.4286C6.51532 12.4286 3.95075 13.2084 2.07814 14.5928C1.10324 15.3135 0.615777 15.6739 0.430117 15.6596C0.249142 15.6458 0.134289 15.5751 0.0403894 15.4198C-0.0559417 15.2604 0.0291427 14.7625 0.199312 13.7667C1.30429 7.30056 5.75426 5.57143 8.9434 5.57143V2.78148C8.9434 2.21646 8.9434 1.93396 9.05754 1.79545C9.15669 1.67513 9.3063 1.60794 9.4621 1.61378C9.64145 1.62049 9.8526 1.80818 10.2749 2.18355Z" fill="url(#paint0_linear_223_1188)"/>
<path fill-rule="evenodd" clip-rule="evenodd" d="M12.9323 0.989665C13.2141 0.686132 13.6887 0.668556 13.9922 0.950408L19.2084 5.79403C20.1553 6.67333 20.6934 7.90721 20.6934 9.19943C20.6934 10.5616 20.0957 11.8553 19.0584 12.7382L13.968 17.0711C13.6526 17.3396 13.1792 17.3016 12.9107 16.9861C12.6423 16.6707 12.6803 16.1974 12.9957 15.9289L18.0862 11.596C18.7886 10.998 19.1934 10.122 19.1934 9.19943C19.1934 8.32431 18.829 7.4887 18.1877 6.89322L12.9715 2.0496C12.668 1.76775 12.6504 1.2932 12.9323 0.989665Z" fill="url(#paint1_linear_223_1188)"/>
<defs>
<linearGradient id="paint0_linear_223_1188" x1="0" y1="0.75" x2="16.0858" y2="20.9239" gradientUnits="userSpaceOnUse">
<stop stop-color="#CEF61A"/>
<stop offset="1" stop-color="#62FBCD"/>
</linearGradient>
<linearGradient id="paint1_linear_223_1188" x1="0" y1="0.75" x2="16.0858" y2="20.9239" gradientUnits="userSpaceOnUse">
<stop stop-color="#CEF61A"/>
<stop offset="1" stop-color="#62FBCD"/>
</linearGradient>
</defs>
</svg>
