<svg width="20" height="12" viewBox="0 0 20 12" fill="none" xmlns="http://www.w3.org/2000/svg">
<path d="M10.8932 12C4.06 12 0.1624 7.49546 0 0H3.42282C3.53527 5.50149 6.05873 7.8318 8.05745 8.31231V0H11.2805V4.74471C13.2542 4.54054 15.3279 2.3784 16.0275 0H19.2505C18.9868 1.23351 18.4614 2.40146 17.7069 3.43071C16.9525 4.45997 15.9852 5.32851 14.8657 5.982C16.1154 6.57909 17.2191 7.42414 18.1041 8.46146C18.9891 9.49886 19.6353 10.7049 20 12H16.4522C16.1248 10.8751 15.4595 9.86812 14.5395 9.10526C13.6195 8.3424 12.4857 7.85769 11.2805 7.71171V12H10.8932Z" fill="white"/>
</svg>
